<mxfile host="app.diagrams.net" modified="2023-01-01T23:06:50.264Z" agent="5.0 (X11; Linux x86_64) AppleWebKit/537.36 (KHTML, like Gecko) Chrome/108.0.0.0 Safari/537.36" etag="VEm2r2AUMksAST_QfD98" version="20.7.4" type="github">
  <diagram id="C5RBs43oDa-KdzZeNtuy" name="Page-1">
    <mxGraphModel dx="2415" dy="1060" grid="0" gridSize="10" guides="1" tooltips="1" connect="1" arrows="1" fold="1" page="1" pageScale="1" pageWidth="827" pageHeight="1169" background="#FFFFFF" math="0" shadow="0">
      <root>
        <mxCell id="WIyWlLk6GJQsqaUBKTNV-0" />
        <mxCell id="WIyWlLk6GJQsqaUBKTNV-1" parent="WIyWlLk6GJQsqaUBKTNV-0" />
        <mxCell id="kngb4JNgc9BsZV8GuQ8r-0" value="" style="image;html=1;image=img/lib/clip_art/computers/IBM_Tablet_128x128.png" vertex="1" parent="WIyWlLk6GJQsqaUBKTNV-1">
          <mxGeometry x="250" y="430" width="150" height="110" as="geometry" />
        </mxCell>
        <mxCell id="kngb4JNgc9BsZV8GuQ8r-2" value="End User" style="text;html=1;strokeColor=none;fillColor=none;align=center;verticalAlign=middle;whiteSpace=wrap;rounded=0;" vertex="1" parent="WIyWlLk6GJQsqaUBKTNV-1">
          <mxGeometry x="287.5" y="560" width="75" height="30" as="geometry" />
        </mxCell>
        <mxCell id="kngb4JNgc9BsZV8GuQ8r-3" value="" style="rounded=1;whiteSpace=wrap;html=1;" vertex="1" parent="WIyWlLk6GJQsqaUBKTNV-1">
          <mxGeometry x="-450" y="312.5" width="575" height="345" as="geometry" />
        </mxCell>
        <mxCell id="kngb4JNgc9BsZV8GuQ8r-5" value="" style="sketch=0;points=[[0,0,0],[0.25,0,0],[0.5,0,0],[0.75,0,0],[1,0,0],[0,1,0],[0.25,1,0],[0.5,1,0],[0.75,1,0],[1,1,0],[0,0.25,0],[0,0.5,0],[0,0.75,0],[1,0.25,0],[1,0.5,0],[1,0.75,0]];outlineConnect=0;fontColor=#232F3E;gradientColor=#4D72F3;gradientDirection=north;fillColor=#3334B9;strokeColor=#ffffff;dashed=0;verticalLabelPosition=bottom;verticalAlign=top;align=center;html=1;fontSize=12;fontStyle=0;aspect=fixed;shape=mxgraph.aws4.resourceIcon;resIcon=mxgraph.aws4.database;" vertex="1" parent="WIyWlLk6GJQsqaUBKTNV-1">
          <mxGeometry x="-380" y="458" width="78" height="78" as="geometry" />
        </mxCell>
        <mxCell id="kngb4JNgc9BsZV8GuQ8r-6" value="" style="sketch=0;points=[[0,0,0],[0.25,0,0],[0.5,0,0],[0.75,0,0],[1,0,0],[0,1,0],[0.25,1,0],[0.5,1,0],[0.75,1,0],[1,1,0],[0,0.25,0],[0,0.5,0],[0,0.75,0],[1,0.25,0],[1,0.5,0],[1,0.75,0]];outlineConnect=0;fontColor=#232F3E;gradientColor=#4D72F3;gradientDirection=north;fillColor=#3334B9;strokeColor=#ffffff;dashed=0;verticalLabelPosition=bottom;verticalAlign=top;align=center;html=1;fontSize=12;fontStyle=0;aspect=fixed;shape=mxgraph.aws4.resourceIcon;resIcon=mxgraph.aws4.tools_and_sdks;" vertex="1" parent="WIyWlLk6GJQsqaUBKTNV-1">
          <mxGeometry x="-220" y="462" width="78" height="78" as="geometry" />
        </mxCell>
        <mxCell id="kngb4JNgc9BsZV8GuQ8r-7" value="" style="sketch=0;points=[[0,0,0],[0.25,0,0],[0.5,0,0],[0.75,0,0],[1,0,0],[0,1,0],[0.25,1,0],[0.5,1,0],[0.75,1,0],[1,1,0],[0,0.25,0],[0,0.5,0],[0,0.75,0],[1,0.25,0],[1,0.5,0],[1,0.75,0]];outlineConnect=0;fontColor=#232F3E;gradientColor=#F54749;gradientDirection=north;fillColor=#C7131F;strokeColor=#ffffff;dashed=0;verticalLabelPosition=bottom;verticalAlign=top;align=center;html=1;fontSize=12;fontStyle=0;aspect=fixed;shape=mxgraph.aws4.resourceIcon;resIcon=mxgraph.aws4.mobile;" vertex="1" parent="WIyWlLk6GJQsqaUBKTNV-1">
          <mxGeometry x="-60" y="462" width="78" height="78" as="geometry" />
        </mxCell>
        <mxCell id="kngb4JNgc9BsZV8GuQ8r-15" value="&lt;font style=&quot;font-size: 10px;&quot;&gt;User open the site&lt;/font&gt;" style="text;html=1;strokeColor=none;fillColor=none;align=center;verticalAlign=middle;whiteSpace=wrap;rounded=0;" vertex="1" parent="WIyWlLk6GJQsqaUBKTNV-1">
          <mxGeometry x="150" y="489" width="100" height="30" as="geometry" />
        </mxCell>
        <mxCell id="kngb4JNgc9BsZV8GuQ8r-19" value="&lt;font style=&quot;font-size: 10px;&quot;&gt;Angular on S3&lt;/font&gt;" style="text;html=1;strokeColor=none;fillColor=none;align=center;verticalAlign=middle;whiteSpace=wrap;rounded=0;" vertex="1" parent="WIyWlLk6GJQsqaUBKTNV-1">
          <mxGeometry x="-71" y="540" width="100" height="30" as="geometry" />
        </mxCell>
        <mxCell id="kngb4JNgc9BsZV8GuQ8r-20" value="&lt;font style=&quot;font-size: 10px;&quot;&gt;API server on Elastic beanstalk&lt;/font&gt;" style="text;html=1;strokeColor=none;fillColor=none;align=center;verticalAlign=middle;whiteSpace=wrap;rounded=0;" vertex="1" parent="WIyWlLk6GJQsqaUBKTNV-1">
          <mxGeometry x="-231" y="550" width="100" height="30" as="geometry" />
        </mxCell>
        <mxCell id="kngb4JNgc9BsZV8GuQ8r-21" value="&lt;span style=&quot;font-size: 10px;&quot;&gt;Postgres Database on RDS&lt;/span&gt;" style="text;html=1;strokeColor=none;fillColor=none;align=center;verticalAlign=middle;whiteSpace=wrap;rounded=0;" vertex="1" parent="WIyWlLk6GJQsqaUBKTNV-1">
          <mxGeometry x="-391" y="550" width="100" height="30" as="geometry" />
        </mxCell>
        <mxCell id="kngb4JNgc9BsZV8GuQ8r-22" value="" style="edgeStyle=orthogonalEdgeStyle;html=1;endArrow=none;elbow=vertical;startArrow=block;startFill=1;strokeColor=#545B64;rounded=0;fontSize=10;" edge="1" parent="WIyWlLk6GJQsqaUBKTNV-1">
          <mxGeometry width="100" relative="1" as="geometry">
            <mxPoint x="48" y="503.5" as="sourcePoint" />
            <mxPoint x="148" y="503.5" as="targetPoint" />
            <Array as="points">
              <mxPoint x="128" y="503.5" />
              <mxPoint x="128" y="503.5" />
            </Array>
          </mxGeometry>
        </mxCell>
        <mxCell id="kngb4JNgc9BsZV8GuQ8r-27" value="" style="edgeStyle=orthogonalEdgeStyle;html=1;endArrow=none;elbow=vertical;startArrow=block;startFill=1;strokeColor=#545B64;rounded=0;fontSize=10;" edge="1" parent="WIyWlLk6GJQsqaUBKTNV-1">
          <mxGeometry width="100" relative="1" as="geometry">
            <mxPoint x="-300" y="493.64" as="sourcePoint" />
            <mxPoint x="-228" y="494" as="targetPoint" />
            <Array as="points">
              <mxPoint x="-264" y="494" />
              <mxPoint x="-228" y="494" />
            </Array>
          </mxGeometry>
        </mxCell>
        <mxCell id="kngb4JNgc9BsZV8GuQ8r-28" value="&lt;font style=&quot;font-size: 10px;&quot;&gt;Saved data&lt;/font&gt;" style="text;html=1;strokeColor=none;fillColor=none;align=center;verticalAlign=middle;whiteSpace=wrap;rounded=0;" vertex="1" parent="WIyWlLk6GJQsqaUBKTNV-1">
          <mxGeometry x="-310" y="500" width="100" height="30" as="geometry" />
        </mxCell>
        <mxCell id="kngb4JNgc9BsZV8GuQ8r-29" value="" style="edgeStyle=orthogonalEdgeStyle;html=1;endArrow=none;elbow=vertical;startArrow=block;startFill=1;strokeColor=#545B64;rounded=0;fontSize=10;" edge="1" parent="WIyWlLk6GJQsqaUBKTNV-1">
          <mxGeometry width="100" relative="1" as="geometry">
            <mxPoint x="-140" y="489.06999999999994" as="sourcePoint" />
            <mxPoint x="-68.00000000000023" y="489.43000000000006" as="targetPoint" />
            <Array as="points">
              <mxPoint x="-104" y="489.43000000000006" />
              <mxPoint x="-68" y="489.43000000000006" />
            </Array>
          </mxGeometry>
        </mxCell>
        <mxCell id="kngb4JNgc9BsZV8GuQ8r-30" value="&lt;font style=&quot;font-size: 10px;&quot;&gt;Fetch data&lt;/font&gt;" style="text;html=1;strokeColor=none;fillColor=none;align=center;verticalAlign=middle;whiteSpace=wrap;rounded=0;" vertex="1" parent="WIyWlLk6GJQsqaUBKTNV-1">
          <mxGeometry x="-150" y="495.43000000000006" width="100" height="30" as="geometry" />
        </mxCell>
        <mxCell id="kngb4JNgc9BsZV8GuQ8r-31" value="" style="sketch=0;points=[[0,0,0],[0.25,0,0],[0.5,0,0],[0.75,0,0],[1,0,0],[0,1,0],[0.25,1,0],[0.5,1,0],[0.75,1,0],[1,1,0],[0,0.25,0],[0,0.5,0],[0,0.75,0],[1,0.25,0],[1,0.5,0],[1,0.75,0]];gradientDirection=north;outlineConnect=0;fontColor=#232F3E;gradientColor=#505863;fillColor=#1E262E;strokeColor=#ffffff;dashed=0;verticalLabelPosition=bottom;verticalAlign=top;align=center;html=1;fontSize=12;fontStyle=0;aspect=fixed;shape=mxgraph.aws4.resourceIcon;resIcon=mxgraph.aws4.marketplace;" vertex="1" parent="WIyWlLk6GJQsqaUBKTNV-1">
          <mxGeometry x="-440" y="290" width="68" height="68" as="geometry" />
        </mxCell>
        <mxCell id="kngb4JNgc9BsZV8GuQ8r-32" value="AWS Cloud" style="text;html=1;strokeColor=none;fillColor=none;align=center;verticalAlign=middle;whiteSpace=wrap;rounded=0;fontSize=10;" vertex="1" parent="WIyWlLk6GJQsqaUBKTNV-1">
          <mxGeometry x="-436" y="360" width="60" height="30" as="geometry" />
        </mxCell>
      </root>
    </mxGraphModel>
  </diagram>
</mxfile>
